# xmcd
#
# Track frame offsets: 
#        150
#        23402
#        45021
#        64733
#        87469
#        105987
#        123948
#        139932
#        159219
#        177282
#        202333
#
# Disc length: 2813 seconds
#
# Revision: 0
# Processed by: cddbd v1.4PL0 Copyright (c) Steve Scherf et al.
# Submitted via: ExactAudioCopy v0.90b3
#
DISCID=850afb0b
DTITLE=angie palmer - a certain kind of distance
DYEAR=1999
DGENRE=Blues
TTITLE0=50 thousand wrongs
TTITLE1=dance with me
TTITLE2=heating up my cool
TTITLE3=these days
TTITLE4=in the night
TTITLE5=you said
TTITLE6=thin disguise
TTITLE7=love me like a man
TTITLE8=fade away
TTITLE9=a case of you
TTITLE10=mercedes benz
EXTD=
EXTT0=
EXTT1=
EXTT2=
EXTT3=
EXTT4=
EXTT5=
EXTT6=
EXTT7=
EXTT8=
EXTT9=
EXTT10=
PLAYORDER=
